<?xml version="1.0" standalone="no"?>
<!DOCTYPE svg PUBLIC "-//W3C//DTD SVG 20010904//EN"
 "http://www.w3.org/TR/2001/REC-SVG-20010904/DTD/svg10.dtd">
<svg version="1.0" xmlns="http://www.w3.org/2000/svg"
 width="1024.000000pt" height="1024.000000pt" viewBox="0 0 1024.000000 1024.000000"
 preserveAspectRatio="xMidYMid meet">
<metadata>
Created by potrace 1.14, written by Peter Selinger 2001-2017
</metadata>
<g transform="translate(0.000000,1024.000000) scale(0.100000,-0.100000)"
fill="#000000" stroke="none">
<path d="M88 10104 l-88 -134 0 -4985 0 -4985 5120 0 5120 0 0 5120 0 5120
-5032 -1 -5033 0 -87 -135z m9121 -3146 c27 -8 38 -20 57 -64 13 -30 28 -54
34 -54 12 0 54 -65 65 -100 4 -14 18 -41 30 -60 13 -19 26 -52 30 -74 6 -37
46 -142 99 -258 17 -39 32 -58 43 -58 20 0 93 -110 93 -138 0 -10 7 -28 16
-40 8 -12 12 -27 9 -32 -3 -6 3 -22 14 -36 11 -14 23 -42 27 -63 4 -20 12 -47
19 -61 15 -30 46 -157 45 -185 0 -11 -2 -76 -4 -143 -3 -68 -6 -126 -9 -128
-2 -3 1 -32 8 -64 7 -33 9 -60 4 -60 -10 0 -6 -99 6 -124 6 -13 5 -17 -2 -13
-6 4 -14 -4 -17 -18 -4 -14 -11 -25 -16 -25 -6 0 -10 -13 -10 -29 0 -16 -6
-31 -15 -35 -8 -3 -15 -14 -15 -25 0 -11 -4 -22 -9 -25 -5 -3 -7 -14 -4 -24 2
-10 -5 -28 -15 -40 -28 -32 -36 -86 -18 -114 16 -25 18 -69 3 -79 -6 -4 -3
-20 6 -37 10 -22 12 -32 4 -35 -9 -3 -8 -12 2 -33 7 -16 17 -42 22 -57 6 -23
5 -27 -9 -25 -13 2 -18 -7 -22 -42 -3 -25 -9 -43 -15 -41 -5 2 -15 -6 -21 -18
-6 -11 -14 -18 -17 -15 -4 4 -9 -2 -13 -12 -19 -57 -59 -130 -88 -162 -29 -30
-34 -44 -41 -106 -4 -39 -7 -92 -6 -118 1 -38 -3 -48 -18 -53 -27 -8 -34 -49
-16 -85 9 -17 13 -35 10 -40 -4 -6 3 -26 15 -45 15 -25 19 -39 12 -48 -7 -8
-6 -25 4 -52 11 -35 11 -41 -2 -48 -9 -5 -13 -16 -9 -27 3 -10 1 -39 -5 -65
-7 -33 -7 -51 0 -60 6 -7 13 -38 16 -70 5 -53 4 -57 -11 -45 -14 11 -20 9 -45
-21 -16 -19 -29 -40 -30 -46 0 -7 -10 -15 -22 -18 -25 -5 -203 -23 -228 -23
-8 0 -73 -3 -145 -6 -71 -4 -177 -9 -235 -12 -58 -2 -114 -5 -125 -6 -203 -11
-340 -18 -475 -23 -91 -4 -232 -11 -315 -16 -82 -5 -166 -9 -185 -9 -19 1 -91
-4 -160 -10 -69 -6 -172 -12 -230 -15 -58 -2 -161 -8 -230 -14 -69 -6 -181
-13 -250 -16 -69 -3 -145 -7 -170 -10 -25 -3 -110 -7 -190 -10 -80 -3 -194 -7
-255 -10 -367 -18 -515 -26 -555 -29 -25 -3 -103 -8 -175 -12 -178 -10 -172
-10 -245 -17 -36 -4 -175 -9 -310 -11 -135 -3 -285 -10 -335 -16 -49 -6 -107
-8 -127 -5 -20 4 -45 2 -55 -3 -23 -13 -113 -20 -328 -27 -93 -3 -206 -10
-250 -15 -44 -6 -96 -10 -115 -10 -19 1 -78 -1 -130 -4 -52 -2 -160 -7 -240
-10 -223 -9 -224 -9 -242 -18 -9 -4 -28 -4 -42 2 -17 6 -35 6 -51 0 -14 -5
-108 -12 -208 -15 -288 -8 -338 -11 -397 -23 -31 -5 -148 -13 -260 -17 -113
-4 -208 -9 -211 -11 -4 -2 -67 -6 -140 -9 -74 -3 -177 -11 -229 -16 -164 -19
-310 -30 -455 -34 -154 -5 -189 -9 -283 -31 -45 -11 -67 -12 -76 -5 -7 6 -29
12 -48 13 -20 2 -34 6 -32 9 5 9 -21 60 -28 54 -2 -2 -3 10 -1 28 4 46 -5 77
-23 77 -8 0 -12 4 -9 10 3 6 2 10 -3 10 -5 0 -21 11 -35 24 -22 20 -26 32 -24
68 2 24 6 48 10 55 4 6 3 22 -2 35 -5 14 -4 32 2 45 6 14 6 32 -1 52 -8 24 -8
39 3 65 8 19 14 61 13 93 -1 41 3 66 16 85 10 16 15 35 11 47 -3 11 0 33 8 48
10 20 12 46 8 91 -4 37 -2 82 5 110 6 26 17 94 23 151 7 65 18 117 30 136 21
36 35 83 32 107 -1 9 3 19 9 23 5 3 10 17 10 30 0 13 5 27 10 30 6 4 7 12 3
18 -5 7 -13 48 -19 92 -11 71 -10 83 5 105 31 45 51 98 50 127 -1 15 6 46 15
68 10 22 19 47 20 55 2 8 9 31 18 50 23 52 30 80 21 80 -18 0 -14 63 6 84 10
12 22 37 25 56 15 78 18 110 8 110 -16 0 -20 34 -11 90 8 50 6 55 -23 96 -17
24 -35 44 -40 44 -4 0 -8 18 -8 40 0 30 -7 46 -30 70 -16 16 -34 30 -39 30 -6
0 -8 7 -5 15 5 11 -8 22 -43 38 -41 18 -48 26 -46 47 1 14 -1 32 -4 40 -7 18
-12 45 -14 83 -1 15 -6 27 -12 27 -5 0 -7 9 -4 20 3 10 0 21 -7 23 -8 3 -8 7
0 18 6 8 9 31 6 52 -3 29 -8 37 -19 32 -12 -4 -14 1 -11 25 3 16 1 30 -4 30
-5 0 -6 5 -2 12 4 6 8 25 9 42 2 56 18 109 41 144 13 19 24 39 24 45 0 40 134
131 225 153 17 4 35 11 42 16 7 5 17 7 22 4 6 -4 19 1 31 11 11 10 33 19 48
20 15 1 50 6 77 13 28 6 75 16 105 22 30 5 64 14 75 18 11 5 61 12 110 15 50
4 93 12 96 17 4 6 20 6 44 -1 21 -6 42 -8 47 -5 4 3 43 7 86 10 42 2 106 9
142 14 36 5 101 12 145 14 130 6 268 16 295 21 14 3 93 7 175 11 83 3 175 7
205 10 30 2 109 6 175 8 66 2 172 8 235 14 63 6 192 14 285 17 94 4 202 8 240
11 110 7 240 13 510 24 386 15 476 21 503 31 13 5 39 7 56 4 17 -4 58 -2 91 4
33 5 161 13 284 16 123 3 228 8 234 12 5 3 61 7 126 9 132 3 114 3 246 5 55 0
104 3 109 7 6 3 44 7 86 8 41 1 127 5 190 8 63 3 170 6 238 6 72 1 122 5 122
11 0 5 30 10 68 9 204 0 266 1 276 8 14 9 59 11 521 27 168 6 212 9 291 19 27
3 145 8 263 11 119 3 222 10 233 16 12 7 43 8 79 4 35 -4 65 -3 72 3 7 6 34 7
71 1 35 -4 79 -4 105 2 79 16 194 27 351 34 143 6 284 15 288 19 8 9 241 4
271 -6z"/>
<path d="M8246 6298 c-14 -19 -16 -66 -15 -323 1 -394 9 -523 34 -541 30 -22
71 -17 93 11 15 19 29 25 60 25 60 0 140 19 193 46 96 48 148 128 149 226 0
162 -129 276 -347 303 l-53 7 0 117 c0 102 -3 120 -18 134 -27 25 -78 22 -96
-5z m282 -414 c97 -47 133 -146 77 -212 -37 -44 -114 -74 -183 -70 l-57 3 -3
159 -3 159 58 -7 c32 -3 82 -18 111 -32z"/>
<path d="M7736 6279 c-23 -18 -39 -20 -119 -19 -127 3 -125 3 -143 -25 -14
-21 -14 -30 -4 -54 16 -39 27 -43 146 -48 l101 -6 7 -66 c3 -36 6 -186 6 -333
l0 -267 26 -20 c34 -26 45 -26 79 1 l28 22 -6 333 c-5 309 -5 333 11 333 60 0
200 23 219 36 52 34 12 121 -50 110 -18 -2 -67 -8 -109 -12 -69 -6 -80 -4
-104 15 -34 26 -54 27 -88 0z"/>
<path d="M7064 6264 c-38 -18 -58 -52 -77 -129 -14 -52 -47 -282 -47 -321 0
-8 -10 -14 -25 -14 -33 0 -65 -33 -65 -68 0 -31 27 -62 53 -62 14 0 17 -10 16
-57 0 -32 -4 -80 -8 -108 -14 -84 20 -129 79 -105 35 15 47 47 55 155 11 139
6 132 86 145 39 7 72 10 74 9 1 -2 15 -62 29 -133 15 -74 33 -137 43 -148 34
-38 103 -11 103 41 0 13 -10 74 -21 137 l-22 114 27 25 c17 15 26 35 26 53 0
33 -16 50 -57 61 -21 5 -30 16 -36 42 -58 230 -99 329 -150 360 -38 23 -43 23
-83 3z m57 -211 c6 -16 21 -68 34 -118 25 -100 26 -98 -43 -109 l-44 -7 6 38
c3 21 11 80 18 131 6 50 13 92 15 92 2 0 8 -12 14 -27z"/>
<path d="M6281 6221 c-17 -18 -40 -58 -51 -89 -36 -97 -85 -359 -107 -582 l-8
-75 -32 -3 c-34 -3 -63 -33 -63 -63 0 -25 101 -170 124 -179 12 -4 33 -3 49 2
35 13 45 50 24 94 l-17 34 33 1 c17 0 103 6 189 12 l158 13 -6 -37 c-11 -67
59 -105 102 -56 33 37 94 144 94 164 0 37 -29 63 -70 63 -28 0 -40 5 -44 18
-3 9 -24 82 -46 162 -71 252 -160 469 -212 517 -13 13 -38 26 -56 29 -27 5
-36 2 -61 -25z m78 -208 c51 -111 161 -452 161 -498 0 -12 -121 -25 -227 -25
l-45 0 7 68 c6 59 28 194 67 415 7 37 15 67 18 67 4 0 12 -12 19 -27z"/>
<path d="M5514 6202 c-126 -38 -190 -94 -166 -147 18 -39 51 -40 133 -4 50 21
91 32 127 33 47 1 57 -2 78 -27 63 -73 -4 -195 -146 -265 -90 -45 -114 -76
-90 -119 20 -36 50 -39 124 -13 33 11 85 20 118 20 50 0 63 -4 85 -26 35 -35
27 -87 -21 -131 -49 -45 -101 -56 -227 -48 -116 7 -139 -1 -139 -50 0 -61 87
-92 230 -82 130 9 227 60 278 146 22 37 26 58 27 116 0 90 -28 139 -101 175
-27 14 -50 25 -51 25 -1 0 13 29 30 65 27 54 32 76 32 136 0 64 -3 77 -30 115
-59 84 -174 115 -291 81z"/>
<path d="M4825 6173 c-173 -62 -282 -298 -246 -533 22 -144 92 -248 201 -298
70 -33 183 -35 253 -4 136 60 217 211 217 404 0 48 -5 111 -11 140 -27 127
-105 240 -194 282 -56 27 -158 31 -220 9z m212 -167 c56 -62 83 -147 83 -260
0 -97 -19 -167 -60 -224 -91 -126 -264 -100 -331 50 -20 45 -23 69 -23 158 0
120 20 187 75 254 52 62 85 78 153 73 57 -3 62 -6 103 -51z"/>
<path d="M4125 6141 c-45 -20 -105 -82 -133 -138 -11 -21 -30 -74 -43 -118
-29 -104 -32 -309 -6 -396 44 -142 126 -204 259 -197 114 6 222 70 266 158 23
47 19 75 -14 97 -35 23 -69 9 -103 -41 -37 -54 -99 -86 -165 -86 -93 0 -130
71 -131 255 0 144 34 266 93 328 37 39 60 34 113 -23 25 -27 54 -50 63 -50 23
0 66 44 66 68 0 38 -59 110 -112 136 -61 31 -98 32 -153 7z"/>
<path d="M2860 6112 c-8 -3 -23 -12 -33 -21 -17 -14 -18 -31 -16 -166 2 -125
0 -155 -14 -182 -22 -41 -21 -59 2 -97 16 -26 21 -59 27 -204 6 -159 9 -174
28 -187 29 -21 63 -18 87 6 20 20 21 29 17 135 -3 68 -2 114 4 114 5 0 28 -13
51 -29 50 -34 279 -171 324 -195 48 -24 89 -21 109 9 19 29 12 70 -14 85 -135
78 -371 222 -419 257 -40 28 -63 51 -63 63 0 21 93 95 250 199 52 35 98 68
102 75 24 36 -11 96 -55 96 -22 0 -226 -128 -273 -171 -11 -11 -24 -16 -27
-12 -4 3 -7 45 -7 92 0 60 -5 93 -15 108 -16 22 -41 32 -65 25z"/>
<path d="M2339 6085 c-30 -16 -62 -84 -78 -165 -9 -44 -41 -277 -41 -296 0 -2
-11 -4 -25 -4 -32 0 -65 -33 -65 -64 0 -25 41 -66 66 -66 17 0 17 -3 3 -130
-11 -92 -10 -102 6 -120 18 -20 60 -26 81 -12 23 15 34 54 45 165 13 130 9
124 100 134 66 7 58 19 89 -137 11 -58 23 -112 26 -121 7 -26 58 -43 83 -30
42 23 44 43 16 183 -14 71 -25 131 -23 132 53 24 69 62 44 100 -11 18 -25 26
-45 26 -27 0 -28 2 -61 125 -65 248 -129 330 -221 280z m101 -329 c12 -48 19
-90 17 -92 -2 -2 -25 -7 -50 -10 l-47 -7 0 32 c0 34 17 158 27 201 l6 25 13
-30 c7 -16 22 -70 34 -119z"/>
<path d="M1436 6041 c-15 -16 -17 -40 -15 -174 1 -129 -1 -159 -15 -178 -21
-31 -20 -57 3 -95 16 -26 20 -60 26 -195 8 -188 15 -209 70 -209 57 0 68 29
63 160 -2 61 -2 110 1 110 4 0 29 -15 56 -33 92 -62 341 -206 367 -212 36 -9
84 32 75 66 -11 39 -16 43 -147 119 -227 131 -360 223 -360 247 0 23 68 78
240 193 106 71 120 84 120 115 0 26 -35 65 -58 65 -22 0 -114 -54 -220 -130
-46 -33 -85 -60 -88 -60 -2 0 -4 43 -4 95 0 82 -3 98 -20 115 -25 25 -72 26
-94 1z"/>
<path d="M7172 5018 c-8 -8 -43 -13 -90 -14 -56 -1 -90 -7 -126 -23 -27 -13
-72 -24 -100 -26 -28 -2 -94 -11 -146 -21 -52 -9 -107 -18 -122 -19 -15 -1
-34 -7 -42 -14 -9 -8 -26 -11 -40 -7 -14 3 -27 2 -30 -3 -3 -5 -29 -21 -58
-36 -29 -15 -59 -35 -66 -44 -10 -12 -12 -12 -6 -1 4 8 -17 -9 -47 -38 -54
-51 -98 -112 -82 -112 4 0 2 -4 -6 -9 -8 -5 -20 -7 -28 -4 -24 9 -14 40 25 73
20 18 60 54 89 80 29 27 76 57 105 69 29 11 45 20 35 20 -31 1 -135 -58 -158
-89 -13 -16 -39 -40 -58 -53 -50 -33 -68 -69 -52 -103 10 -23 9 -28 -14 -46
-31 -24 -34 -77 -6 -102 18 -17 18 -18 -6 -42 -26 -27 -53 -83 -53 -112 0 -11
9 -31 20 -45 19 -24 19 -26 3 -56 -20 -34 -12 -59 25 -76 11 -5 23 -18 26 -28
2 -11 9 -16 14 -13 6 3 13 -1 16 -10 4 -10 2 -13 -7 -8 -6 4 -3 -2 7 -14 15
-17 16 -22 5 -22 -8 0 -20 -15 -27 -33 -17 -47 -14 -59 4 -18 l15 35 21 -21
c20 -20 20 -25 8 -82 -7 -34 -13 -101 -14 -151 0 -49 -2 -90 -3 -90 -1 0 -13
11 -27 25 -24 23 -25 24 -31 5 -3 -10 -5 -49 -4 -86 2 -56 6 -70 26 -88 40
-34 134 -68 228 -81 98 -14 341 -13 354 1 5 5 4 45 -2 89 -12 92 -13 145 -3
170 5 13 16 16 51 13 25 -2 45 0 45 3 0 9 -69 19 -86 12 -19 -7 -34 -44 -34
-83 0 -27 -4 -29 -47 -37 -76 -13 -290 -10 -304 4 -8 8 -11 39 -10 88 1 41 -2
75 -6 75 -5 0 -9 9 -10 20 -1 11 3 20 9 20 6 0 8 14 4 38 -5 28 -4 33 4 22 8
-12 10 -7 8 20 -3 30 0 35 20 38 12 2 22 7 22 12 0 5 6 7 14 4 12 -5 34 18 61
65 6 10 4 12 -6 6 -10 -6 -9 -3 2 11 11 12 15 34 14 64 l-2 46 33 -4 c21 -3
34 0 34 7 0 11 -18 15 -50 13 -9 -1 -16 7 -17 17 -1 15 6 19 44 19 25 1 77 -5
117 -13 71 -13 245 -11 256 3 3 4 28 7 55 7 36 1 61 8 90 26 39 25 75 34 75
17 0 -4 -7 -8 -15 -8 -8 0 -32 -17 -54 -38 -31 -29 -41 -47 -46 -84 -4 -26 -5
-54 -2 -62 8 -20 -11 -25 -51 -14 -19 5 -40 7 -48 4 -8 -3 -12 -2 -9 3 6 10
-115 8 -150 -2 -11 -3 -23 -6 -26 -6 -3 -1 -15 -10 -27 -21 -28 -26 -29 -60
-2 -67 11 -3 17 -9 14 -14 -5 -9 35 -22 78 -23 15 -1 28 -5 28 -10 0 -4 11 -6
25 -4 14 3 25 2 25 -2 0 -12 60 -18 67 -7 3 5 9 4 13 -3 4 -7 25 -14 46 -15
22 -1 41 -3 44 -5 13 -6 76 3 81 12 3 5 49 9 102 9 69 0 101 4 110 14 10 9 28
12 57 8 29 -4 41 -3 37 5 -5 6 0 8 13 5 12 -3 20 0 20 8 0 7 3 10 6 6 4 -3 21
5 39 19 l33 25 -1 -60 c0 -56 -2 -61 -28 -70 -15 -5 -52 -25 -82 -44 -62 -40
-92 -47 -125 -28 -31 17 -42 5 -14 -15 20 -14 22 -24 22 -100 0 -47 -5 -94
-11 -106 -6 -11 -9 -22 -6 -24 10 -10 132 28 210 66 45 21 97 53 115 69 l33
31 -42 38 c-37 35 -43 46 -54 109 -8 48 -9 88 -3 125 5 29 11 73 13 98 2 25 7
58 11 73 5 23 3 29 -14 34 -20 5 -20 6 9 45 16 23 29 48 29 57 0 9 -8 1 -17
-18 -10 -19 -37 -48 -62 -65 -24 -17 -57 -44 -73 -60 -15 -16 -28 -25 -28 -20
0 5 -4 5 -8 -1 -4 -5 -21 -15 -39 -21 -37 -14 -46 -7 -57 40 -4 16 -24 46 -44
67 l-38 37 40 5 c23 3 42 10 44 16 2 6 20 8 43 5 23 -4 45 -1 53 5 7 6 21 9
30 5 9 -3 16 -2 16 4 0 5 14 12 30 16 17 3 43 19 59 35 30 31 41 31 41 0 0
-10 5 -21 11 -25 17 -10 2 46 -18 69 -17 18 -38 24 -28 7 9 -15 -41 -60 -75
-66 -16 -4 -30 -10 -30 -15 0 -5 -6 -6 -14 -3 -8 3 -24 0 -37 -6 -42 -23 -254
-33 -270 -13 -16 18 -25 17 -72 -14 -49 -33 -52 -34 -137 -44 -104 -13 -233
-10 -285 6 -29 8 -53 11 -59 5 -14 -10 -68 -1 -60 11 3 5 16 9 29 9 13 0 27 5
30 10 4 6 10 8 15 5 5 -3 11 -1 15 5 4 6 9 8 13 6 4 -2 40 18 79 44 78 52 166
81 221 73 27 -4 31 -3 26 11 -8 21 -81 22 -110 1 -12 -8 -24 -12 -27 -8 -4 3
-27 -2 -52 -12 -32 -12 -45 -22 -41 -32 3 -8 1 -11 -4 -8 -6 3 -23 -3 -39 -14
-16 -12 -34 -21 -41 -21 -6 0 -8 -5 -4 -12 4 -7 3 -8 -4 -4 -18 11 -14 20 16
34 31 14 96 71 89 78 -2 2 -10 -2 -17 -11 -7 -8 -21 -15 -31 -15 -10 0 -21 -5
-25 -11 -3 -6 -17 -9 -30 -6 -14 2 -27 0 -30 -4 -3 -5 -23 -9 -44 -9 -21 0
-42 -5 -45 -11 -9 -14 4 -27 13 -13 4 5 20 7 37 3 17 -4 23 -7 14 -8 -9 0 -23
-8 -30 -18 -13 -15 -11 -16 24 -10 20 3 37 2 37 -4 0 -5 -13 -9 -29 -9 -17 0
-32 -4 -35 -9 -3 -4 -16 -8 -28 -7 -13 1 -27 -3 -31 -9 -5 -6 -6 -1 -3 10 18
70 19 78 6 70 -8 -5 -20 2 -34 19 -20 25 -86 53 -86 36 0 -4 -8 -6 -19 -3 -16
4 -18 13 -14 71 9 151 38 240 92 278 9 7 27 22 41 34 46 40 131 76 264 110
102 26 120 26 113 0 -3 -10 1 -27 9 -37 21 -29 17 -44 -27 -84 -35 -32 -40
-41 -29 -54 7 -8 18 -15 25 -15 24 0 26 -33 5 -62 -76 -103 -84 -126 -50 -155
27 -23 25 -41 -5 -49 -14 -3 -25 -11 -25 -16 0 -5 6 -7 13 -4 6 3 20 9 30 12
9 4 17 10 17 14 0 5 9 6 20 3 37 -10 150 7 150 23 0 21 17 17 23 -5 3 -11 17
-22 36 -26 32 -7 39 -19 19 -31 -6 -4 -14 -2 -16 4 -5 17 -27 15 -42 -3 -11
-13 -8 -15 16 -16 16 0 46 -3 67 -5 28 -3 37 -2 31 7 -4 8 -3 9 5 5 6 -4 17
-3 24 2 7 6 17 11 22 12 6 1 21 7 35 13 14 5 35 9 48 8 13 -2 29 3 37 9 15 12
128 22 121 11 -4 -6 24 -11 72 -14 6 0 12 -4 12 -9 0 -5 5 -6 10 -3 6 3 10 1
10 -5 0 -7 7 -9 16 -6 8 3 12 2 9 -4 -3 -6 -2 -10 3 -10 20 0 44 72 38 110 -4
27 -2 41 10 51 33 27 36 48 15 85 -16 27 -19 40 -11 54 18 33 11 68 -17 95
-15 14 -33 25 -39 25 -13 0 -54 42 -54 56 0 23 -58 63 -105 75 -27 6 -57 15
-65 20 -66 38 -108 47 -128 27z m-127 -495 c24 -13 95 -13 112 -1 7 6 17 7 23
3 5 -3 10 0 10 7 0 10 2 10 9 -1 6 -9 19 -12 40 -8 17 4 31 4 31 2 0 -8 -53
-28 -67 -26 -18 3 -55 -18 -74 -41 -16 -20 -16 -20 -65 8 -27 16 -51 28 -54
28 -12 -2 -38 21 -34 31 5 13 42 12 69 -2z m285 3 c0 -2 -9 -6 -20 -9 -11 -3
-18 -1 -14 4 5 9 34 13 34 5z m-383 -32 c-3 -3 -12 -4 -19 -1 -8 3 -5 6 6 6
11 1 17 -2 13 -5z m426 -1 c-13 -2 -35 -2 -50 0 -16 2 -5 4 22 4 28 0 40 -2
28 -4z m-488 -13 c-3 -5 -21 -10 -38 -9 -27 0 -29 2 -12 9 28 12 57 12 50 0z
m355 -10 c0 -5 -9 -6 -20 -3 -11 3 -20 9 -20 13 0 5 9 6 20 3 11 -3 20 -9 20
-13z m200 10 c0 -5 -4 -10 -10 -10 -5 0 -10 5 -10 10 0 6 5 10 10 10 6 0 10
-4 10 -10z m-1123 -92 c-3 -8 -6 -5 -6 6 -1 11 2 17 5 13 3 -3 4 -12 1 -19z
m64 -15 c13 -16 12 -17 -3 -4 -10 7 -18 15 -18 17 0 8 8 3 21 -13z m-126 -3
c-3 -5 -11 -10 -16 -10 -6 0 -7 5 -4 10 3 6 11 10 16 10 6 0 7 -4 4 -10z m-35
-4 c0 -2 -7 -7 -16 -10 -8 -3 -12 -2 -9 4 6 10 25 14 25 6z m0 -106 c-6 -11
-16 -20 -22 -20 -6 0 -3 9 7 20 10 11 20 20 22 20 2 0 -1 -9 -7 -20z m106 -6
c13 -18 12 -23 -7 -40 -22 -19 -22 -19 -10 4 16 31 7 52 -21 51 l-23 -2 23 -4
c25 -5 27 -15 11 -45 -8 -14 -8 -23 0 -31 11 -11 50 27 51 51 0 22 25 7 28
-17 2 -15 0 -21 -7 -17 -17 11 -13 -20 4 -34 19 -16 18 -102 -1 -138 -11 -22
-12 -22 -17 -3 -3 11 0 23 7 26 6 3 1 3 -11 1 -12 -2 -23 0 -25 4 -3 9 -29 13
-73 11 -24 -1 -27 -3 -15 -12 13 -9 13 -10 0 -6 -8 2 -16 9 -16 15 -1 7 -3 15
-4 20 -2 4 -3 16 -4 27 -1 11 -6 19 -13 18 -7 -2 -9 10 -6 37 4 26 2 40 -6 40
-6 0 -11 5 -11 11 0 6 6 9 12 7 7 -3 21 6 31 19 10 13 22 21 27 18 5 -3 12 0
15 5 10 17 46 7 61 -16z m814 -24 c13 -9 12 -12 -4 -25 -11 -8 -27 -15 -37
-15 -9 0 -23 -10 -32 -22 -8 -13 -19 -19 -23 -15 -12 12 18 60 46 74 30 15 31
15 50 3z m-950 -52 c0 -13 -5 -30 -11 -38 -9 -12 -10 -11 -6 6 2 12 0 29 -5
38 -7 12 -5 16 7 16 9 0 15 -9 15 -22z"/>
<path d="M6247 4236 c5 -22 3 -27 -7 -21 -9 5 -11 4 -6 -3 4 -7 3 -20 -3 -29
-6 -11 -6 -24 0 -35 13 -25 29 -22 28 5 0 21 -1 21 -9 2 -5 -11 -9 -15 -9 -9
-1 7 6 25 14 40 16 32 20 68 6 60 -5 -4 -12 0 -15 6 -3 7 -2 0 1 -16z"/>
<path d="M6373 4115 c0 -27 2 -38 4 -22 2 15 2 37 0 50 -2 12 -4 0 -4 -28z"/>
<path d="M6302 4128 c2 -5 8 -9 13 -9 5 0 11 4 13 9 1 5 -4 9 -13 9 -9 0 -14
-4 -13 -9z"/>
<path d="M6967 4443 c-12 -12 -7 -22 8 -17 8 4 15 10 15 15 0 11 -14 12 -23 2z"/>
<path d="M5062 4380 c-93 -33 -126 -53 -137 -83 -11 -33 0 -55 37 -76 24 -14
31 -12 95 17 72 33 146 42 183 22 30 -16 44 -84 30 -139 -22 -86 -70 -159
-157 -240 -86 -79 -96 -99 -67 -139 32 -46 96 -21 189 72 71 71 119 148 150
240 25 75 27 106 9 198 -9 44 -62 108 -107 129 -55 25 -155 24 -225 -1z"/>
<path d="M4445 4350 c-17 -19 -26 -20 -120 -14 -96 6 -104 5 -124 -15 -27 -27
-27 -61 -1 -89 19 -20 31 -22 125 -22 57 0 106 -4 109 -9 3 -5 9 -157 12 -338
7 -356 8 -363 63 -363 71 1 73 14 65 384 l-6 323 103 7 c76 5 111 12 129 25
31 22 37 54 15 87 l-16 25 -122 -7 c-106 -6 -124 -5 -136 10 -19 23 -74 20
-96 -4z"/>
<path d="M3992 4342 c-11 -11 -28 -59 -40 -110 -27 -117 -72 -262 -81 -262 -6
0 -115 195 -173 310 -29 58 -68 79 -103 56 -55 -36 -49 -53 126 -373 49 -89
89 -167 89 -173 0 -6 -18 -59 -40 -117 -43 -114 -49 -162 -24 -187 21 -21 67
-20 86 2 14 15 128 326 184 497 27 84 84 297 84 314 0 19 -47 61 -70 61 -11 0
-28 -8 -38 -18z"/>
<path d="M2990 4318 c-99 -9 -134 -21 -147 -51 -15 -32 3 -74 36 -85 27 -10
28 -12 34 -108 4 -55 10 -209 13 -344 7 -275 11 -290 68 -290 20 0 40 8 51 20
17 19 18 37 12 258 -4 130 -10 292 -13 360 l-7 122 55 0 c30 0 82 -3 115 -6
l60 -7 6 -181 c8 -205 33 -480 47 -507 20 -36 90 -36 110 0 6 13 5 64 -5 162
-8 79 -18 224 -22 322 -6 171 -5 177 13 177 59 0 89 83 42 114 -58 38 -294 60
-468 44z"/>
<path d="M2204 4265 c-21 -21 -25 -33 -21 -58 3 -18 9 -107 13 -199 7 -166 6
-168 -14 -168 -12 0 -29 -12 -38 -26 -23 -35 -9 -74 34 -93 l32 -15 0 -121 c0
-109 2 -125 21 -149 25 -31 61 -34 89 -6 18 18 20 33 20 149 l0 128 100 7 c56
4 107 9 114 12 11 4 15 -12 20 -68 13 -151 18 -171 42 -195 29 -29 46 -29 80
0 l26 23 -11 102 c-16 153 -15 171 12 181 74 28 59 131 -19 131 l-24 0 0 173
c0 197 -6 217 -65 217 -62 0 -68 -21 -64 -240 3 -160 2 -191 -11 -195 -8 -4
-58 -9 -111 -12 l-96 -6 -7 149 c-12 267 -16 287 -68 299 -21 5 -33 1 -54 -20z"/>
<path d="M1871 4264 c-30 -22 -102 -175 -181 -383 -90 -241 -86 -237 -93 -85
-4 71 -7 195 -7 275 0 132 -2 147 -20 167 -27 29 -61 28 -90 -3 l-23 -25 7
-284 c6 -266 17 -420 32 -470 17 -58 76 -83 121 -51 24 17 71 111 128 260 133
344 131 340 138 305 4 -18 7 -141 7 -274 0 -202 3 -245 16 -264 19 -28 67 -29
94 -2 20 20 21 31 19 283 -2 306 -11 444 -34 504 -24 63 -66 80 -114 47z"/>
<path d="M6148 3950 c-3 -16 -1 -30 4 -30 4 0 8 14 8 30 0 17 -2 30 -4 30 -2
0 -6 -13 -8 -30z"/>
<path d="M6138 3885 c-6 -30 -3 -43 8 -33 3 4 4 19 2 35 l-3 28 -7 -30z"/>
<path d="M6642 3872 c2 -9 11 -16 21 -16 9 1 14 -2 12 -7 -8 -13 35 -33 47
-21 6 6 -7 19 -37 35 -39 22 -46 24 -43 9z"/>
<path d="M6142 3810 c0 -19 2 -27 5 -17 2 9 2 25 0 35 -3 9 -5 1 -5 -18z"/>
<path d="M7198 3797 c-32 -15 -68 -46 -68 -60 0 -6 10 -1 23 10 32 30 86 55
99 47 7 -4 8 -3 4 4 -9 15 -23 14 -58 -1z"/>
<path d="M6850 3761 c0 -5 19 -16 43 -26 23 -9 50 -24 60 -33 16 -15 20 -14
48 2 31 18 61 15 91 -11 13 -12 21 -12 35 -3 16 10 16 10 -4 5 -23 -6 -32 8
-13 20 6 3 10 11 10 18 0 8 -3 8 -11 0 -6 -6 -26 -9 -45 -6 -19 3 -47 0 -63
-7 -24 -10 -33 -9 -53 4 -36 24 -98 47 -98 37z"/>
<path d="M5070 3677 c-79 -40 -53 -157 35 -157 79 0 112 85 56 141 -32 32 -53
35 -91 16z"/>
<path d="M6938 3663 c7 -3 16 -2 19 1 4 3 -2 6 -13 5 -11 0 -14 -3 -6 -6z"/>
<path d="M7115 3650 c3 -5 16 -10 28 -9 21 0 21 1 2 9 -28 12 -37 12 -30 0z"/>
<path d="M7035 3640 c-27 -7 -28 -8 -5 -8 14 0 34 3 45 8 25 11 2 11 -40 0z"/>
<path d="M6935 3630 c-8 -13 5 -13 25 0 13 8 13 10 -2 10 -9 0 -20 -4 -23 -10z"/>
<path d="M7094 3609 c-2 -5 -23 -13 -45 -19 -31 -9 -44 -8 -55 1 -12 10 -22 6
-52 -23 -20 -20 -53 -46 -72 -58 l-35 -22 75 7 c41 3 100 10 130 15 159 26
201 34 205 40 3 4 -29 21 -70 38 -42 16 -78 26 -81 21z"/>
</g>
</svg>
